<?xml version="1.0" standalone="no"?>
<!DOCTYPE svg PUBLIC "-//W3C//DTD SVG 20010904//EN"
 "http://www.w3.org/TR/2001/REC-SVG-20010904/DTD/svg10.dtd">
<svg version="1.0" xmlns="http://www.w3.org/2000/svg"
 width="900.000000pt" height="900.000000pt" viewBox="0 0 900.000000 900.000000"
 preserveAspectRatio="xMidYMid meet">

<g transform="translate(0.000000,900.000000) scale(0.100000,-0.100000)"
fill="#000000" stroke="none">
<path d="M4040 8021 c-14 -5 -43 -20 -64 -35 -21 -14 -48 -26 -58 -26 -27 0
-71 -33 -114 -85 -27 -33 -42 -67 -60 -137 -14 -51 -30 -112 -36 -136 -11 -39
-9 -48 15 -96 15 -29 27 -69 27 -89 0 -57 86 -137 220 -205 133 -68 189 -76
253 -39 24 15 70 36 102 48 32 12 78 40 103 62 41 38 82 102 82 127 0 6 11 36
25 66 36 78 33 131 -14 258 -26 73 -50 119 -76 149 -40 44 -106 87 -136 87
-10 0 -21 5 -24 10 -4 6 -24 19 -45 30 -41 21 -148 27 -200 11z"/>
<path d="M2720 7459 c-152 -17 -386 -65 -429 -88 -47 -26 -66 -98 -38 -148 21
-39 118 -133 137 -133 10 0 33 6 51 14 19 8 69 19 112 25 43 6 91 18 107 26
72 37 317 38 406 0 19 -8 71 -19 116 -25 115 -16 156 -28 197 -56 20 -14 68
-34 106 -45 39 -12 81 -31 95 -44 14 -13 47 -33 73 -44 92 -39 295 -233 372
-356 11 -17 33 -47 51 -67 17 -21 36 -55 42 -76 6 -21 26 -60 44 -87 30 -45
80 -172 114 -290 25 -86 38 -316 26 -456 -9 -106 -18 -146 -62 -278 -28 -85
-59 -166 -69 -180 -10 -14 -30 -48 -43 -76 -74 -150 -119 -212 -237 -329 -121
-120 -172 -158 -351 -257 -119 -65 -324 -135 -455 -155 -126 -19 -383 -16
-408 5 -25 20 -21 51 13 104 16 26 33 59 36 73 4 14 22 45 40 69 18 24 40 58
50 77 9 18 29 49 44 68 15 19 37 54 49 77 11 23 34 57 50 75 15 18 39 53 51
78 13 25 34 59 47 75 13 17 39 50 58 75 19 25 81 105 137 178 57 74 110 144
119 157 8 13 51 62 95 109 124 133 183 202 193 230 15 39 -9 289 -53 546 -8
47 -20 150 -26 228 -12 162 -21 191 -77 250 -54 57 -94 58 -158 2 -25 -22 -63
-44 -85 -50 -22 -6 -56 -25 -76 -42 -48 -42 -148 -111 -204 -142 -25 -13 -54
-34 -65 -46 -11 -13 -37 -34 -58 -47 -26 -16 -45 -40 -59 -71 -10 -26 -30 -67
-43 -92 -13 -25 -33 -78 -45 -118 -12 -40 -35 -102 -51 -137 -16 -35 -38 -97
-48 -137 -10 -40 -30 -96 -44 -123 -14 -28 -35 -91 -46 -139 -12 -48 -34 -118
-50 -154 -32 -75 -51 -136 -51 -169 0 -13 -15 -55 -34 -95 -42 -92 -44 -97
-56 -189 -5 -43 -18 -92 -30 -111 -26 -45 -43 -106 -70 -248 -11 -63 -30 -142
-40 -175 -23 -72 -45 -171 -59 -278 -7 -50 -22 -99 -42 -138 -36 -72 -54 -202
-43 -312 6 -62 8 -68 27 -65 33 5 66 76 88 186 11 53 21 106 24 118 2 11 20
40 38 65 19 24 42 65 52 92 10 26 24 47 31 47 21 0 18 -96 -5 -161 -27 -80
-59 -224 -66 -307 -5 -48 -16 -89 -32 -119 -40 -77 -39 -176 3 -190 14 -5 39
57 48 121 6 36 17 58 46 90 35 38 70 115 70 153 0 28 92 204 114 219 20 12 28
12 67 -1 65 -21 304 -34 454 -25 140 9 251 34 421 94 119 43 254 107 304 145
19 15 64 41 100 59 57 28 121 77 240 186 88 79 203 221 246 301 15 28 39 68
55 90 16 22 38 67 49 99 11 33 29 75 40 93 11 18 29 68 40 111 11 42 33 127
49 187 60 220 61 499 4 700 -14 50 -33 126 -43 171 -10 44 -34 109 -53 145
-19 35 -41 82 -47 104 -7 22 -23 54 -36 71 -13 16 -33 51 -44 77 -12 26 -34
62 -49 80 -15 18 -41 52 -58 77 -17 25 -70 83 -119 130 -48 47 -107 104 -130
127 -24 23 -65 53 -93 67 -27 14 -56 34 -63 44 -7 11 -36 31 -64 45 -28 14
-64 37 -80 50 -44 36 -64 45 -148 62 -42 9 -97 26 -123 39 -55 27 -174 56
-231 56 -21 0 -60 6 -86 14 -62 19 -259 27 -366 15z"/>
<path d="M2499 6292 c-26 -15 -64 -42 -84 -61 -21 -18 -55 -40 -74 -48 -20 -9
-57 -34 -82 -57 -26 -22 -66 -54 -90 -69 -54 -35 -102 -67 -154 -106 -22 -16
-62 -40 -90 -54 -27 -14 -60 -39 -73 -56 -13 -18 -37 -34 -60 -41 -25 -6 -58
-31 -101 -75 -64 -65 -64 -65 -73 -143 -6 -42 -12 -169 -14 -282 -2 -113 -9
-340 -15 -505 -6 -165 -12 -372 -14 -460 -1 -88 -7 -205 -14 -260 -14 -127
-32 -571 -24 -605 3 -14 11 -34 18 -46 8 -11 18 -38 24 -60 19 -66 64 -104
101 -84 10 5 31 42 48 82 33 83 47 198 44 361 -3 107 9 193 33 238 8 16 22 43
31 59 11 21 18 77 24 178 9 143 34 276 59 306 6 8 21 78 32 157 13 88 30 167
45 204 21 51 60 189 81 285 3 14 14 37 24 51 27 38 37 69 45 135 8 72 27 128
59 174 16 23 28 60 35 109 9 62 16 80 45 112 31 34 55 91 55 129 0 8 18 41 40
73 22 33 42 73 44 90 3 18 8 48 11 68 3 22 17 47 36 65 41 40 105 165 82 163
-4 0 -29 -13 -54 -27z"/>
<path d="M7775 4478 c-16 -5 -57 -17 -89 -26 -76 -22 -94 -46 -103 -135 -5
-58 -11 -74 -42 -112 l-36 -45 -1 -107 c-1 -163 -19 -307 -53 -413 -39 -125
-64 -269 -55 -328 12 -85 27 -108 93 -141 71 -36 116 -39 174 -10 102 51 123
106 65 174 -18 20 -36 50 -39 65 -9 43 18 216 46 295 13 39 29 99 34 135 6 35
18 98 27 140 15 67 22 80 66 122 l48 48 -16 37 c-36 84 -38 101 -21 157 22 67
21 99 0 124 -22 26 -59 34 -98 20z"/>
<path d="M6685 4233 c-57 -13 -86 -26 -95 -43 -11 -21 -35 -135 -50 -244 -6
-38 -21 -106 -35 -150 -13 -45 -31 -122 -38 -173 -13 -91 -13 -91 -73 -156
-105 -115 -201 -168 -309 -170 -109 -2 -164 55 -165 170 0 42 4 55 22 67 12 9
29 16 38 16 33 0 91 22 117 44 15 13 51 35 78 50 62 34 148 117 183 176 24 40
27 57 31 158 4 146 1 151 -114 181 -48 13 -107 23 -130 23 -54 -1 -195 -55
-221 -83 -11 -12 -37 -34 -59 -49 -22 -15 -47 -41 -55 -56 -8 -16 -31 -54 -51
-84 -36 -52 -106 -259 -123 -362 -4 -21 -26 -66 -49 -100 -33 -49 -49 -64 -74
-69 -18 -3 -44 -15 -59 -25 -73 -52 -78 -54 -151 -54 -80 0 -115 12 -132 44
-21 42 -32 156 -22 230 6 39 14 105 19 148 7 59 16 86 39 120 17 23 36 64 43
89 9 35 26 61 70 104 67 66 84 67 120 4 21 -39 22 -45 10 -96 -10 -48 -10 -57
6 -74 29 -32 78 -25 112 17 35 43 56 105 47 144 -4 16 -27 52 -51 79 -82 91
-190 102 -350 34 -114 -48 -235 -167 -264 -260 -7 -21 -23 -55 -37 -75 -32
-48 -39 -83 -53 -258 -10 -123 -9 -157 4 -220 14 -66 20 -79 56 -112 51 -46
111 -66 221 -74 72 -6 103 -3 180 16 82 20 99 29 135 64 77 75 125 116 137
116 29 0 80 -43 97 -83 26 -59 48 -76 111 -86 30 -5 67 -14 82 -20 39 -15 112
-14 177 3 30 8 75 17 99 21 35 6 54 18 91 56 43 45 52 49 94 49 37 0 46 -4 47
-17 2 -38 -3 -77 -17 -116 -8 -22 -14 -54 -14 -72 0 -18 -7 -52 -15 -76 -20
-55 -65 -265 -65 -301 0 -39 42 -66 79 -51 14 6 49 20 76 32 28 11 62 23 77
26 38 7 59 44 68 118 10 86 69 308 88 330 19 21 61 22 109 2 48 -20 94 -19
194 6 106 27 130 39 160 83 13 20 27 36 30 36 15 0 58 53 64 78 3 15 24 63 46
107 35 72 40 92 50 200 6 66 12 170 12 231 0 98 -2 117 -24 160 -46 94 -167
132 -313 100 -42 -10 -86 -16 -98 -14 -12 2 -35 23 -53 48 -30 43 -34 45 -86
47 -30 0 -63 -1 -74 -4z m-472 -158 c25 -24 50 -113 43 -149 -8 -41 -53 -105
-130 -186 -67 -70 -107 -85 -151 -56 -32 21 -32 58 0 100 13 17 29 55 35 82
17 80 131 224 177 224 6 0 18 -7 26 -15z m782 -59 c42 -18 59 -51 75 -143 10
-64 9 -79 -9 -145 -11 -40 -25 -104 -32 -143 -18 -114 -96 -228 -183 -269 -43
-20 -75 -20 -106 0 -58 39 -63 69 -24 146 18 36 28 77 35 147 6 53 14 114 19
136 5 22 10 54 10 71 0 18 12 48 30 73 17 22 37 59 46 80 23 58 72 75 139 47z"/>
<path d="M3810 4182 c-14 -2 -38 -9 -55 -17 -16 -7 -56 -16 -87 -20 -56 -7
-61 -11 -141 -89 -103 -99 -138 -150 -170 -247 -14 -41 -37 -105 -51 -144 -22
-61 -26 -86 -26 -193 0 -141 6 -161 73 -236 79 -89 219 -116 394 -76 122 29
138 36 167 81 23 34 31 39 66 39 43 0 51 -7 65 -65 15 -59 47 -72 150 -57 99
15 121 33 136 117 6 33 24 119 39 190 24 110 40 189 77 388 6 33 110 157 132
157 39 0 86 -36 111 -85 31 -61 55 -68 112 -30 72 47 104 170 56 215 -62 58
-234 50 -287 -13 -21 -26 -34 -21 -78 28 l-41 45 -88 -6 c-49 -3 -99 -10 -110
-16 -30 -14 -44 -50 -44 -115 0 -69 -24 -178 -57 -263 -17 -42 -28 -96 -33
-151 l-6 -87 -82 -78 c-115 -112 -140 -130 -200 -143 -164 -35 -248 9 -259
136 -7 77 11 100 85 112 30 5 66 18 80 30 15 12 47 31 72 42 60 27 141 108
192 192 36 59 42 78 46 141 7 110 -7 140 -78 176 -64 32 -121 47 -160 42z m75
-126 c9 -14 19 -48 21 -78 5 -47 2 -59 -28 -107 -18 -30 -54 -77 -80 -105 -26
-28 -55 -62 -66 -75 -22 -28 -70 -31 -108 -6 -31 20 -31 55 2 94 27 33 44 79
44 123 0 20 19 47 72 103 81 84 114 95 143 51z"/>
<path d="M2013 3652 c-27 -17 -44 -202 -23 -243 6 -10 17 -19 25 -19 12 0 15
23 15 135 0 74 -1 135 -2 135 -2 0 -9 -4 -15 -8z"/>
<path d="M585 2732 c-58 -6 -134 -33 -173 -61 -21 -16 -54 -37 -73 -46 -18
-10 -42 -29 -54 -44 -11 -14 -36 -41 -57 -60 -20 -18 -43 -49 -51 -70 -8 -20
-31 -62 -50 -94 -19 -31 -38 -78 -42 -104 -9 -60 -28 -98 -60 -119 l-25 -16 0
-354 0 -354 27 -11 c15 -5 42 -28 60 -49 19 -21 62 -56 96 -77 l62 -38 150 1
c139 1 154 3 200 26 28 14 68 31 90 38 22 7 60 32 85 56 82 78 125 82 173 16
25 -35 53 -58 106 -86 69 -36 77 -38 149 -34 112 6 210 56 298 152 83 90 98
120 139 275 43 165 49 179 80 187 40 10 98 -3 118 -27 23 -28 22 -39 -8 -84
-29 -42 -50 -131 -60 -255 -4 -47 -14 -100 -21 -119 -17 -41 -18 -93 -2 -109
15 -15 158 -16 191 -1 27 12 39 33 57 94 7 22 20 58 30 80 26 59 50 175 50
244 0 60 41 202 86 295 34 70 118 105 165 67 20 -16 23 -28 23 -82 1 -112 -22
-260 -55 -353 -25 -72 -30 -101 -27 -147 6 -79 46 -142 116 -182 86 -48 115
-51 201 -16 40 16 91 43 111 59 21 17 46 30 55 30 10 0 37 -18 60 -39 32 -30
57 -42 101 -51 91 -20 204 -18 234 2 14 9 48 24 75 33 28 9 64 30 80 45 17 16
51 38 77 49 26 11 54 31 64 45 12 19 25 26 48 26 48 0 58 -12 61 -75 4 -69 26
-97 93 -119 104 -36 224 -7 298 71 23 23 50 43 59 43 10 0 41 -25 71 -55 55
-58 104 -85 151 -85 51 0 172 51 206 87 44 47 81 45 141 -8 50 -44 128 -79
175 -79 16 0 68 14 115 31 70 26 90 38 106 64 19 31 38 45 62 45 5 0 31 -22
56 -49 61 -63 137 -96 201 -86 95 14 161 42 211 89 63 59 90 60 128 7 30 -45
131 -101 178 -101 30 0 140 32 173 49 10 6 34 26 54 46 51 51 79 48 141 -19
28 -30 64 -60 79 -66 33 -12 138 2 194 25 49 21 103 19 138 -5 27 -18 40 -20
120 -14 50 3 100 12 112 20 29 18 41 64 57 222 11 107 18 137 40 175 20 33 29
68 37 133 12 110 14 118 50 174 37 60 78 84 129 75 52 -9 72 -34 78 -99 4 -46
-1 -65 -33 -135 -33 -73 -38 -95 -46 -204 -4 -67 -11 -133 -14 -147 -8 -37 13
-125 37 -155 32 -41 102 -68 174 -67 93 1 143 18 196 68 26 24 54 44 63 44 22
0 54 -18 94 -53 44 -37 107 -67 146 -67 31 0 140 31 178 51 12 7 37 25 55 40
43 38 65 36 98 -7 39 -51 71 -63 192 -76 l107 -11 85 37 c94 41 173 108 189
161 23 72 32 173 22 231 -5 33 -12 154 -16 269 -6 230 -16 304 -44 329 -16 15
-29 15 -112 5 -52 -6 -102 -15 -112 -21 -29 -15 -107 -193 -107 -243 0 -44 11
-59 62 -84 36 -18 38 -26 51 -166 16 -184 15 -213 -17 -271 -36 -67 -74 -89
-152 -87 -68 1 -100 13 -109 43 -9 28 10 56 55 81 49 28 56 50 44 134 -9 60
-9 64 18 96 15 18 30 47 34 64 7 41 -10 85 -35 85 -31 0 -51 -38 -51 -97 0
-55 -7 -66 -64 -106 -14 -10 -37 -39 -50 -65 -13 -26 -39 -70 -57 -98 -19 -28
-41 -65 -50 -81 -22 -40 -60 -49 -107 -26 -47 23 -52 45 -40 174 7 79 16 118
37 164 19 41 34 99 45 180 10 66 20 130 22 142 6 29 40 60 74 68 16 3 36 15
46 26 17 19 16 21 -29 67 -26 26 -47 55 -47 64 0 9 11 40 25 70 30 65 31 88 4
122 -24 30 -53 33 -157 15 -82 -15 -108 -38 -117 -105 -13 -105 -17 -117 -54
-157 -53 -59 -55 -71 -24 -127 l27 -49 -23 -47 c-14 -30 -26 -80 -32 -136 -11
-114 -23 -168 -55 -253 -15 -38 -31 -83 -37 -100 -6 -16 -31 -51 -55 -77 -36
-39 -51 -48 -78 -48 -42 0 -69 26 -83 77 -8 30 -7 50 9 99 10 33 24 108 30
165 11 96 24 194 37 277 7 41 -35 130 -78 167 -27 22 -39 25 -112 25 -69 -1
-88 -4 -122 -25 -49 -31 -84 -32 -119 -4 -38 30 -171 48 -216 29 -43 -18 -56
-42 -70 -130 -7 -41 -21 -97 -32 -124 -25 -64 -36 -124 -48 -260 l-9 -109 -57
-84 c-31 -46 -66 -90 -77 -98 -34 -24 -84 -19 -114 11 -25 25 -26 29 -19 109
6 80 43 261 66 321 13 32 50 260 50 304 0 15 -9 35 -20 45 -28 26 -109 31
-169 11 -64 -21 -78 -20 -156 6 -59 19 -73 20 -128 10 -71 -13 -131 -42 -211
-101 -75 -55 -171 -200 -186 -280 -6 -31 -24 -99 -40 -151 -16 -52 -32 -111
-35 -130 -3 -19 -21 -59 -41 -88 -59 -90 -137 -102 -173 -28 -12 25 -11 38 3
96 9 38 16 92 16 121 0 84 18 177 45 229 15 29 27 75 31 116 9 88 15 99 72
126 64 31 65 53 7 101 -55 46 -59 77 -15 122 39 40 49 94 26 130 -17 26 -18
26 -114 19 -53 -4 -107 -11 -120 -15 -29 -11 -40 -42 -49 -132 -6 -69 -8 -72
-55 -115 -53 -50 -58 -68 -31 -133 14 -35 14 -51 5 -103 -6 -33 -14 -84 -17
-113 -3 -29 -19 -81 -36 -117 -21 -46 -33 -89 -39 -151 l-9 -87 -71 -69 c-60
-59 -76 -69 -106 -69 -24 0 -43 8 -59 25 -43 42 -35 134 35 395 15 58 35 157
43 220 9 67 27 142 41 179 14 35 30 98 35 140 6 42 15 98 21 125 18 80 -4 108
-84 108 -107 0 -175 -48 -195 -137 -6 -27 -15 -71 -21 -97 -6 -26 -13 -83 -16
-125 -5 -58 -14 -93 -35 -135 -24 -46 -31 -77 -39 -170 -9 -109 -29 -198 -65
-303 -10 -27 -24 -68 -31 -90 -8 -22 -32 -61 -55 -87 -33 -39 -47 -48 -73 -48
-44 0 -84 33 -92 75 -4 21 2 73 14 132 12 54 26 134 32 178 6 44 21 114 34
155 52 165 58 228 25 261 -19 19 -28 21 -98 14 -76 -7 -133 -24 -145 -43 -10
-16 -34 -141 -46 -235 -6 -48 -19 -106 -29 -129 -23 -54 -38 -124 -46 -211 -6
-62 -10 -71 -48 -110 -23 -23 -46 -50 -52 -60 -5 -9 -24 -20 -41 -23 -24 -4
-37 0 -62 21 -27 23 -32 34 -32 71 0 25 6 57 14 72 20 39 34 114 46 242 8 88
18 132 46 204 41 104 48 161 21 180 -22 17 -180 28 -213 16 -33 -13 -51 -58
-64 -161 -12 -98 -16 -114 -55 -193 -23 -50 -28 -74 -30 -145 -2 -101 -6 -111
-46 -135 -16 -10 -40 -33 -52 -52 -39 -60 -84 -36 -74 40 4 24 2 129 -4 232
-6 104 -11 236 -12 294 -2 84 -6 112 -20 134 l-19 28 -101 -7 c-56 -4 -114
-13 -129 -21 -59 -30 -98 -120 -98 -224 l0 -57 39 -12 c53 -15 58 -35 65 -252
5 -168 4 -178 -17 -220 -29 -57 -71 -79 -155 -79 -79 0 -102 11 -102 51 0 31
40 79 66 79 8 0 21 11 30 25 16 24 15 31 -1 112 -16 83 -16 88 1 100 10 7 21
13 26 13 17 0 38 62 38 115 0 52 -2 56 -21 53 -37 -5 -61 -49 -66 -123 -5 -57
-9 -68 -29 -75 -12 -5 -29 -19 -38 -32 -75 -109 -125 -191 -140 -231 -24 -63
-53 -83 -101 -67 -19 6 -42 21 -50 33 -28 41 -12 244 25 317 47 93 63 265 31
335 -21 47 -89 112 -127 121 -43 11 -146 -2 -196 -25 -62 -28 -80 -27 -130 9
-45 33 -76 37 -158 19 -66 -14 -86 -37 -105 -123 -28 -127 -39 -140 -122 -149
-54 -6 -79 12 -93 66 -35 138 -134 237 -240 237 -48 0 -132 -24 -197 -56 -77
-37 -186 -143 -214 -208 -12 -28 -32 -63 -44 -78 -22 -26 -38 -85 -65 -238
-15 -85 -47 -150 -87 -175 -18 -11 -47 -30 -65 -42 -61 -42 -97 -53 -185 -59
-127 -9 -160 3 -222 76 -61 74 -66 98 -58 304 6 157 18 245 42 308 8 20 26 78
40 129 15 51 39 111 54 133 16 23 33 57 40 76 18 56 97 149 144 171 85 38 186
17 212 -45 21 -49 19 -58 -17 -133 -29 -61 -30 -68 -17 -92 20 -36 83 -41 122
-11 90 71 87 223 -6 318 -56 58 -85 72 -154 72 -32 1 -76 4 -98 8 -22 4 -53 6
-70 4z m879 -592 c17 -6 29 -22 37 -50 11 -36 10 -45 -11 -89 -24 -51 -23 -63
3 -155 19 -68 -1 -165 -56 -269 -89 -169 -195 -206 -248 -88 -32 71 -36 140
-11 208 11 32 30 98 42 148 32 140 143 298 212 304 4 1 18 -3 32 -9z m4700
-19 c32 -35 37 -80 20 -181 -9 -52 -27 -131 -39 -175 -13 -44 -27 -107 -31
-140 -7 -57 -11 -64 -72 -127 -56 -58 -70 -68 -100 -68 -25 0 -41 8 -62 30
-43 46 -53 89 -48 199 4 77 10 107 32 153 15 31 33 82 42 113 10 42 27 71 59
107 25 28 45 54 45 59 0 5 15 18 33 29 41 25 98 26 121 1z"/>
</g>
</svg>
