<?xml version="1.0" standalone="no"?>
<!DOCTYPE svg PUBLIC "-//W3C//DTD SVG 20010904//EN"
 "http://www.w3.org/TR/2001/REC-SVG-20010904/DTD/svg10.dtd">
<svg version="1.0" xmlns="http://www.w3.org/2000/svg"
 width="1235.000000pt" height="1300.000000pt" viewBox="0 0 1235.000000 1300.000000"
 preserveAspectRatio="xMidYMid meet">

<g transform="translate(0.000000,1300.000000) scale(0.100000,-0.100000)"
fill="#000000" stroke="none">
<path d="M5804 9625 c-16 -14 -35 -25 -41 -25 -7 0 -13 -5 -13 -10 0 -6 -18
-17 -40 -26 -22 -9 -40 -20 -40 -24 0 -4 -16 -15 -35 -24 -19 -9 -35 -21 -35
-25 0 -5 -11 -12 -25 -15 -13 -3 -36 -17 -51 -31 -15 -14 -33 -25 -40 -25 -7
0 -17 -6 -21 -13 -4 -7 -25 -21 -45 -31 -21 -9 -38 -21 -38 -25 0 -4 -20 -16
-45 -27 -25 -10 -45 -22 -45 -26 0 -5 -11 -13 -25 -18 -14 -5 -25 -13 -25 -18
0 -5 -19 -17 -42 -28 -24 -10 -46 -24 -50 -30 -4 -6 -21 -17 -38 -24 -16 -7
-30 -16 -30 -20 0 -4 -18 -15 -40 -25 -22 -10 -40 -22 -40 -27 0 -5 -13 -14
-30 -19 -16 -6 -30 -14 -30 -18 0 -3 -17 -15 -37 -26 -21 -11 -40 -23 -43 -26
-3 -3 -20 -14 -37 -23 -18 -9 -33 -20 -33 -24 0 -5 -16 -14 -35 -22 -19 -7
-36 -19 -39 -27 -3 -7 -11 -13 -19 -13 -7 0 -22 -8 -33 -18 -10 -10 -36 -26
-56 -35 -21 -10 -38 -21 -38 -25 0 -4 -13 -13 -29 -20 -16 -7 -39 -22 -51 -32
-13 -11 -29 -20 -36 -20 -7 0 -17 -6 -21 -12 -4 -7 -24 -22 -43 -32 -19 -11
-43 -28 -53 -37 -11 -10 -30 -20 -43 -23 -14 -4 -33 -14 -43 -24 -36 -33 -66
-54 -93 -64 -16 -5 -28 -13 -28 -17 0 -5 -18 -16 -40 -26 -22 -10 -40 -22 -40
-26 0 -4 -17 -16 -37 -26 -21 -9 -44 -23 -51 -29 -6 -7 -21 -16 -32 -19 -11
-3 -20 -11 -20 -16 0 -5 -18 -17 -40 -26 -22 -10 -40 -21 -40 -26 0 -4 -16
-15 -35 -23 -19 -8 -35 -18 -35 -22 0 -5 -16 -14 -35 -22 -19 -8 -35 -17 -35
-22 0 -4 -15 -15 -32 -24 -18 -9 -35 -20 -38 -23 -3 -4 -22 -15 -42 -24 -20
-9 -38 -21 -40 -25 -3 -8 -91 -62 -120 -74 -10 -4 -18 -11 -18 -16 0 -5 -14
-15 -30 -22 -17 -7 -34 -18 -38 -24 -4 -7 -25 -20 -46 -30 -40 -19 -51 -26
-85 -57 -10 -9 -37 -25 -60 -35 -22 -10 -41 -20 -41 -24 0 -3 -17 -14 -37 -25
-21 -11 -42 -25 -46 -32 -4 -7 -12 -13 -17 -13 -5 0 -29 -13 -53 -30 -25 -16
-50 -30 -56 -30 -6 0 -11 -4 -11 -10 0 -5 -16 -17 -35 -26 -19 -9 -35 -20 -35
-24 0 -4 -18 -15 -40 -25 -22 -10 -40 -22 -40 -27 0 -4 -6 -8 -13 -8 -7 0 -22
-9 -34 -19 -11 -10 -35 -27 -54 -36 -19 -10 -36 -21 -39 -24 -3 -3 -21 -15
-40 -25 -19 -11 -44 -28 -54 -38 -11 -10 -26 -18 -33 -18 -7 0 -13 -4 -13 -8
0 -5 -18 -17 -40 -27 -22 -10 -40 -21 -40 -25 0 -4 -16 -15 -35 -24 -19 -9
-35 -20 -35 -24 0 -5 -20 -16 -45 -26 -25 -11 -45 -23 -45 -28 0 -5 -11 -13
-25 -18 -14 -5 -25 -13 -25 -18 0 -4 -21 -16 -46 -27 -34 -14 -44 -23 -41 -36
3 -12 0 -16 -9 -12 -15 6 -74 -18 -74 -30 0 -4 -11 -12 -25 -17 -14 -5 -25
-13 -25 -18 0 -5 -20 -17 -45 -28 -25 -10 -45 -22 -45 -26 0 -5 -16 -16 -35
-25 -19 -9 -35 -20 -35 -23 0 -4 -18 -15 -40 -26 -90 -43 -78 -44 631 -41 606
2 671 4 679 18 5 9 23 22 40 29 16 7 30 16 30 21 0 5 7 9 15 9 13 0 15 -25 15
-167 l0 -168 353 350 352 350 -353 -356 -353 -355 1 -285 0 -284 348 -350 347
-350 -347 345 -348 345 0 -518 0 -518 23 7 c12 4 24 10 27 14 3 5 25 16 50 26
25 10 47 21 50 24 3 4 22 13 43 19 20 7 37 16 37 21 0 5 25 16 55 25 30 8 55
19 55 24 0 4 25 16 55 26 30 11 55 22 55 25 0 3 26 15 58 25 31 11 63 25 70
32 7 7 18 13 23 13 6 0 35 12 65 26 l54 25 0 1055 c0 930 2 1054 15 1054 8 0
23 8 33 18 9 9 31 24 47 33 51 26 105 61 105 68 0 3 14 13 32 20 18 8 51 27
74 43 23 15 47 28 53 28 6 0 11 4 11 10 0 5 17 17 37 27 21 9 45 25 55 35 10
10 25 18 33 18 8 0 15 4 15 10 0 8 52 41 65 40 3 0 14 9 25 20 11 11 27 20 35
20 8 0 19 9 25 20 6 11 17 20 25 20 7 0 20 6 27 14 8 7 30 21 48 31 19 10 37
21 40 24 3 3 21 15 40 25 19 11 37 22 40 25 3 4 34 24 70 46 36 21 73 47 84
57 10 9 32 20 47 23 16 4 27 10 24 14 -2 5 13 16 35 26 21 10 41 24 44 31 3 8
12 14 20 14 8 0 19 6 23 13 4 7 27 21 51 31 23 11 42 23 42 27 0 4 17 16 38
25 20 10 40 23 44 30 4 6 19 15 33 18 14 4 25 11 25 16 0 6 18 17 40 26 22 9
40 20 40 25 0 5 16 15 35 23 19 8 35 19 35 23 0 4 15 14 33 22 17 8 40 22 50
33 10 10 24 18 32 18 8 0 18 6 22 13 4 7 25 21 46 31 20 9 37 21 37 25 0 4 20
16 45 27 25 10 45 22 45 26 0 5 11 13 25 18 26 10 89 -5 80 -20 -2 -4 16 -16
40 -26 25 -10 45 -22 45 -26 0 -4 16 -14 35 -22 19 -8 35 -19 35 -24 0 -4 16
-14 35 -22 19 -7 36 -19 39 -27 3 -7 11 -13 19 -13 7 0 22 -8 33 -18 10 -10
36 -26 57 -35 20 -10 37 -21 37 -25 0 -4 20 -16 45 -27 25 -11 45 -23 45 -28
0 -4 11 -12 25 -17 14 -5 25 -14 25 -20 0 -5 6 -10 13 -10 8 0 33 -13 55 -30
23 -16 45 -30 49 -30 5 0 21 -11 37 -25 17 -14 40 -28 53 -31 13 -4 23 -10 23
-15 0 -4 16 -16 35 -25 19 -9 35 -20 35 -24 0 -4 18 -15 40 -25 22 -10 40 -21
40 -24 0 -3 13 -12 29 -19 16 -7 42 -24 57 -37 16 -14 35 -25 42 -25 6 0 12
-4 12 -9 0 -5 13 -14 30 -21 16 -7 42 -23 57 -35 14 -13 37 -26 50 -30 13 -3
32 -13 42 -23 36 -33 66 -54 94 -64 15 -5 27 -13 27 -17 0 -5 18 -16 39 -26
22 -10 42 -24 45 -31 3 -8 12 -14 20 -14 8 0 19 -6 23 -13 4 -7 27 -21 51 -31
23 -11 42 -23 42 -27 0 -4 17 -16 37 -26 21 -9 45 -25 55 -35 10 -10 25 -18
33 -18 7 0 18 -6 22 -13 4 -6 21 -19 38 -27 16 -8 37 -23 47 -32 10 -10 25
-18 33 -18 7 0 18 -6 22 -13 4 -7 25 -21 46 -31 20 -9 37 -21 37 -26 0 -5 8
-11 19 -15 10 -3 31 -17 45 -30 l26 -24 2 -1228 c3 -1204 3 -1228 22 -1231 11
-2 25 -10 32 -16 6 -7 37 -18 68 -25 31 -7 56 -16 56 -21 0 -5 19 -14 43 -20
23 -6 53 -17 67 -24 14 -7 48 -19 75 -26 28 -8 53 -18 57 -24 4 -7 14 -6 30 1
50 24 72 23 100 -4 16 -15 28 -32 28 -39 0 -10 117 -50 125 -42 2 2 -34 41
-81 88 l-85 84 61 61 c48 48 67 60 92 60 l31 0 -2 970 -2 970 495 -3 c371 -2
496 0 496 9 0 9 3 9 14 0 9 -8 69 -11 185 -11 186 2 207 9 126 45 -25 11 -45
23 -45 27 0 5 -18 15 -40 24 -22 9 -40 20 -40 24 0 4 -16 15 -35 24 -19 9 -35
21 -35 25 0 5 -10 11 -23 15 -13 3 -36 17 -53 31 -16 14 -34 25 -41 25 -7 0
-16 6 -20 13 -4 7 -25 21 -45 31 -21 9 -38 21 -38 25 0 5 -13 14 -30 20 -16 5
-30 14 -30 18 0 4 -14 14 -30 21 -17 8 -36 19 -43 26 -6 6 -46 31 -87 56 -41
25 -76 48 -78 52 -2 5 -10 8 -17 8 -8 0 -20 8 -27 18 -7 9 -32 26 -55 36 -24
11 -43 23 -43 27 0 4 -17 16 -37 26 -21 9 -44 23 -51 29 -6 7 -21 16 -32 19
-11 3 -20 10 -20 15 0 5 -17 17 -37 26 -21 10 -42 24 -46 31 -4 7 -14 13 -21
13 -7 0 -21 8 -32 18 -10 10 -36 26 -56 35 -21 10 -38 22 -38 27 0 6 -6 10
-13 10 -7 0 -23 9 -35 21 -13 11 -38 27 -57 35 -19 8 -35 18 -35 22 0 4 -20
16 -45 27 -25 11 -45 23 -45 28 0 4 -10 12 -22 18 -13 5 -39 21 -58 34 -40 29
-48 34 -110 73 -25 16 -58 37 -74 48 -16 10 -36 24 -45 29 -9 6 -35 23 -58 38
-24 15 -47 27 -52 27 -17 0 -21 31 -21 151 0 65 -3 119 -7 118 -5 0 -29 -25
-55 -55 -35 -39 -48 -63 -48 -84 0 -28 -2 -29 -21 -18 -16 11 -19 20 -14 48 4
26 23 52 75 103 l70 68 0 408 c0 346 -2 410 -14 414 -20 8 -604 9 -641 1 l-31
-6 4 -66 c4 -64 6 -70 50 -117 l47 -50 -45 43 c-25 23 -48 42 -50 42 -3 0 -5
-122 -4 -270 0 -149 -3 -270 -7 -270 -5 0 -12 6 -16 13 -4 7 -26 21 -47 31
-39 18 -51 26 -85 56 -9 9 -33 24 -54 33 -20 10 -37 22 -37 26 0 4 -19 16 -42
27 -24 10 -47 24 -51 31 -4 7 -13 13 -20 13 -7 0 -25 11 -41 25 -17 14 -40 28
-53 31 -13 4 -23 10 -23 15 0 4 -16 16 -35 25 -19 9 -35 20 -35 24 0 4 -18 15
-40 26 -22 10 -40 22 -40 27 0 4 -6 7 -13 7 -7 0 -22 8 -33 18 -10 10 -35 27
-54 38 -19 10 -37 21 -40 24 -3 3 -22 14 -42 25 -21 11 -38 23 -38 27 0 3 -18
14 -40 24 -21 10 -37 21 -35 25 3 4 -6 10 -19 13 -14 3 -31 13 -39 21 -15 15
-55 40 -119 75 -21 11 -38 24 -38 29 0 5 -13 14 -30 20 -16 5 -30 15 -30 20 0
6 -5 11 -10 11 -6 0 -39 18 -72 40 -34 22 -68 40 -75 40 -7 0 -13 5 -13 10 0
6 -16 18 -35 27 -19 9 -35 20 -35 24 0 3 -15 12 -32 20 -18 7 -37 19 -41 26
-11 18 -20 16 -53 -12z m126 -119 c0 -2 -8 -10 -17 -17 -16 -13 -17 -12 -4 4
13 16 21 21 21 13z m-40 -39 c0 -2 -10 -12 -22 -23 l-23 -19 19 23 c18 21 26
27 26 19z m-80 -80 c0 -2 -10 -12 -22 -23 l-23 -19 19 23 c18 21 26 27 26 19z
m-80 -80 c0 -2 -10 -12 -22 -23 l-23 -19 19 23 c18 21 26 27 26 19z m-80 -80
c0 -2 -10 -12 -22 -23 l-23 -19 19 23 c18 21 26 27 26 19z m-80 -80 c0 -2 -10
-12 -22 -23 l-23 -19 19 23 c18 21 26 27 26 19z m-90 -91 c0 -2 -8 -10 -17
-17 -16 -13 -17 -12 -4 4 13 16 21 21 21 13z m3715 -1636 c10 -11 16 -20 13
-20 -3 0 -13 9 -23 20 -10 11 -16 20 -13 20 3 0 13 -9 23 -20z m146 -147 c13
-16 12 -17 -3 -4 -10 7 -18 15 -18 17 0 8 8 3 21 -13z m-7215 -115 l29 -33
-32 29 c-31 28 -38 36 -30 36 2 0 16 -15 33 -32z m80 -80 l29 -33 -32 29 c-31
28 -38 36 -30 36 2 0 16 -15 33 -32z m69 -68 c10 -11 16 -20 13 -20 -3 0 -13
9 -23 20 -10 11 -16 20 -13 20 3 0 13 -9 23 -20z"/>
<path d="M5310 7070 l0 -280 275 0 275 0 0 183 0 183 -98 97 -99 97 -176 0
-177 0 0 -280z"/>
<path d="M5690 7342 c0 -4 38 -45 85 -92 l85 -85 0 93 0 92 -85 0 c-47 0 -85
-3 -85 -8z"/>
<path d="M5970 7202 l0 -147 133 -133 133 -133 139 3 140 3 3 245 c2 135 0
260 -3 278 l-6 32 -269 0 -270 0 0 -148z"/>
<path d="M5970 6915 l0 -125 127 0 128 0 -125 125 c-69 69 -126 125 -127 125
-2 0 -3 -56 -3 -125z"/>
<path d="M5310 6420 l0 -280 269 0 c236 0 270 2 275 16 3 9 6 135 6 280 l0
264 -275 0 -275 0 0 -280z"/>
<path d="M5970 6420 l0 -280 88 0 87 0 183 183 182 182 -98 98 -97 97 -173 0
-172 0 0 -280z"/>
<path d="M6415 6610 c49 -49 91 -90 92 -90 2 0 3 41 3 90 l0 90 -92 0 -93 0
90 -90z"/>
<path d="M6330 6315 l-175 -175 178 0 177 0 0 175 c0 96 -1 175 -3 175 -1 0
-81 -79 -177 -175z"/>
<path d="M4910 5351 c0 -4 -42 -11 -92 -15 -129 -9 -272 -28 -278 -36 -3 -3
-51 -15 -107 -25 -57 -10 -103 -21 -103 -25 0 -3 -40 -14 -90 -24 -49 -11 -90
-22 -90 -26 0 -4 -25 -12 -55 -19 -30 -7 -55 -16 -55 -20 0 -5 -27 -14 -61
-21 -33 -7 -67 -19 -74 -27 -8 -7 -18 -13 -23 -13 -17 0 -117 -34 -122 -41 -3
-4 -24 -12 -47 -18 -24 -7 -43 -15 -43 -19 0 -4 -29 -16 -65 -27 -36 -10 -65
-23 -65 -27 0 -4 -25 -15 -55 -23 -30 -9 -55 -20 -55 -24 0 -4 -17 -13 -37
-20 -46 -16 -146 -63 -153 -71 -3 -4 -25 -14 -50 -24 -25 -10 -48 -23 -52 -29
-5 -8 -8 -8 -8 2 0 13 -2 12 -12 0 -7 -9 -32 -22 -55 -29 -24 -7 -43 -17 -43
-21 0 -5 -18 -14 -40 -20 -22 -7 -40 -16 -40 -20 0 -4 -22 -15 -50 -25 -27
-10 -50 -21 -50 -25 0 -4 -22 -15 -50 -25 -27 -10 -50 -21 -50 -25 0 -4 -16
-13 -35 -19 -19 -6 -35 -15 -35 -20 0 -5 -14 -11 -31 -15 -17 -4 -40 -16 -50
-26 -10 -10 -19 -17 -19 -14 0 6 -83 -35 -90 -44 -3 -4 -27 -15 -55 -26 -27
-10 -56 -25 -63 -32 -7 -7 -20 -13 -27 -13 -7 0 -20 -6 -27 -13 -7 -7 -32 -21
-55 -31 -24 -11 -43 -22 -43 -26 0 -3 -23 -14 -50 -24 -27 -10 -50 -21 -50
-25 0 -4 -16 -13 -35 -20 -19 -7 -35 -16 -35 -21 0 -4 -22 -16 -50 -26 -27
-10 -50 -21 -50 -25 0 -3 -20 -14 -45 -23 -25 -10 -45 -21 -45 -26 0 -4 -23
-16 -50 -26 -28 -10 -50 -21 -50 -25 0 -4 -16 -13 -35 -19 -19 -6 -35 -15 -35
-20 0 -5 -20 -16 -45 -26 -41 -15 -60 -34 -35 -34 6 0 10 4 10 8 0 5 38 17 85
27 47 10 85 21 85 25 0 4 19 11 43 14 23 4 54 13 68 20 15 7 62 21 105 31 44
9 84 20 89 24 6 4 48 16 95 26 47 10 87 22 90 26 3 3 49 14 103 24 53 10 97
22 97 26 0 4 30 12 68 19 37 7 69 16 72 19 3 4 50 15 105 26 55 10 107 22 115
26 19 10 164 39 196 39 13 0 24 4 24 9 0 5 36 14 80 21 44 7 80 16 80 19 0 4
53 16 118 26 64 10 119 21 122 24 5 7 211 41 247 41 12 0 23 4 25 9 2 5 66 17
143 27 77 10 142 21 145 24 3 4 57 13 120 20 63 8 117 17 120 20 5 7 312 40
367 40 17 0 33 4 35 9 4 12 388 31 638 31 224 0 540 -18 540 -32 0 -4 14 -8
32 -8 49 0 292 -33 298 -40 3 -4 41 -13 85 -19 44 -7 82 -16 85 -21 3 -4 45
-14 94 -23 49 -9 92 -20 95 -25 3 -4 43 -17 89 -27 45 -10 82 -22 82 -27 0 -4
6 -8 14 -8 19 0 120 -33 126 -41 3 -4 24 -12 48 -19 23 -7 42 -16 42 -19 0 -4
20 -13 46 -20 25 -7 50 -19 57 -25 7 -6 38 -20 70 -30 31 -11 57 -23 57 -27 0
-4 16 -13 35 -19 19 -6 35 -15 35 -19 0 -4 23 -15 50 -25 28 -10 50 -21 50
-25 0 -4 25 -16 55 -26 30 -11 55 -22 55 -26 0 -4 25 -15 55 -24 30 -10 55
-21 55 -26 0 -4 18 -14 40 -20 22 -7 40 -15 40 -19 0 -4 24 -15 53 -25 28 -9
54 -20 57 -24 3 -4 34 -16 70 -26 36 -11 70 -25 77 -31 7 -6 29 -15 50 -19 21
-4 40 -11 43 -15 3 -5 37 -16 75 -26 39 -10 72 -22 75 -25 3 -4 41 -15 85 -24
44 -10 82 -21 85 -25 3 -4 50 -15 105 -26 55 -10 102 -21 105 -24 6 -8 193
-30 255 -30 25 0 45 -4 45 -10 0 -6 62 -10 165 -10 103 0 165 4 165 10 0 6 22
10 50 10 69 0 254 21 260 29 3 4 52 15 110 25 57 9 107 21 110 25 3 4 36 14
74 22 38 7 74 18 80 24 6 5 18 12 26 14 116 29 140 37 135 43 -3 3 17 11 44
18 28 7 51 16 51 20 0 5 25 17 55 26 30 10 55 21 55 25 0 4 23 15 50 24 28 9
50 20 50 24 0 4 18 14 40 21 22 7 40 16 40 20 0 4 19 16 42 26 24 10 51 27 60
37 10 9 25 17 33 17 7 0 18 6 22 13 4 7 25 21 46 31 20 9 37 21 37 26 0 5 11
12 25 16 14 3 30 15 36 25 5 11 15 19 22 19 7 0 22 8 33 18 11 10 33 27 49 38
58 38 219 191 228 217 6 15 3 17 -15 11 -12 -3 -31 -15 -42 -25 -11 -11 -26
-19 -33 -19 -8 0 -16 -6 -19 -14 -3 -7 -23 -22 -44 -32 -22 -11 -40 -22 -40
-25 0 -3 -18 -14 -40 -24 -22 -10 -37 -21 -35 -25 2 -4 -14 -12 -35 -19 -22
-6 -40 -16 -40 -21 0 -5 -22 -17 -49 -27 -27 -9 -48 -20 -46 -23 2 -4 -25 -15
-61 -25 -35 -10 -64 -22 -64 -26 0 -4 -24 -13 -52 -19 -29 -7 -55 -16 -58 -20
-6 -9 -151 -40 -187 -40 -13 0 -22 -4 -19 -9 10 -15 -238 -35 -454 -35 -208 0
-500 19 -510 33 -3 4 -67 15 -142 26 -76 10 -138 22 -138 26 0 3 -36 12 -80
19 -44 7 -80 16 -80 19 0 4 -43 15 -95 26 -52 10 -95 21 -95 25 0 4 -38 15
-85 25 -47 10 -85 21 -85 25 0 4 -19 10 -42 14 -24 4 -52 13 -63 20 -12 8 -54
22 -95 32 -41 9 -77 21 -80 24 -3 4 -30 15 -60 25 -30 10 -57 21 -60 26 -3 4
-32 14 -64 23 -33 8 -62 19 -65 24 -3 5 -27 15 -53 23 -27 7 -48 17 -48 20 0
4 -15 11 -32 15 -18 3 -60 19 -93 34 -33 15 -72 30 -87 34 -16 3 -28 10 -28
15 0 5 -20 15 -45 22 -25 7 -45 16 -45 20 0 4 -27 15 -60 25 -33 10 -60 21
-60 26 0 4 -25 15 -55 23 -30 9 -55 20 -55 23 0 4 -19 13 -42 20 -23 7 -60 22
-83 32 -22 9 -51 21 -65 25 -14 4 -27 11 -30 14 -5 6 -71 31 -195 73 -33 12
-62 24 -65 28 -3 3 -27 13 -55 20 -27 7 -52 17 -55 21 -3 4 -37 15 -75 25 -39
10 -72 22 -75 26 -3 4 -37 15 -75 25 -39 10 -72 21 -75 24 -3 4 -32 12 -65 19
-33 7 -62 16 -65 20 -3 5 -46 17 -97 27 -50 10 -90 20 -88 24 2 3 -49 14 -113
24 -64 11 -119 22 -122 26 -6 9 -267 39 -335 39 -25 0 -45 5 -45 10 0 6 -78
10 -215 10 -118 0 -215 -4 -215 -9z m4340 -1596 c13 -14 21 -25 18 -25 -2 0
-15 11 -28 25 -13 14 -21 25 -18 25 2 0 15 -11 28 -25z"/>
<path d="M8548 4955 c-16 -18 -28 -36 -28 -40 0 -4 12 -18 27 -31 l26 -23 28
22 c33 26 41 90 13 101 -27 10 -38 6 -66 -29z"/>
<path d="M8616 4841 c-4 -6 -3 -19 3 -28 9 -17 10 -17 17 0 8 21 -10 45 -20
28z"/>
</g>
</svg>
