<?xml version="1.0" standalone="no"?>
<!DOCTYPE svg PUBLIC "-//W3C//DTD SVG 20010904//EN"
 "http://www.w3.org/TR/2001/REC-SVG-20010904/DTD/svg10.dtd">
<svg version="1.0" xmlns="http://www.w3.org/2000/svg"
 width="765.000000pt" height="576.000000pt" viewBox="0 0 765.000000 576.000000"
 preserveAspectRatio="xMidYMid meet">

<g transform="translate(0.000000,576.000000) scale(0.100000,-0.100000)"
fill="#000000" stroke="none">
<path d="M4765 3370 c-3 -5 -15 -10 -26 -10 -10 0 -19 -7 -19 -15 0 -8 -4 -15
-10 -15 -5 0 -10 -22 -10 -50 0 -27 5 -50 10 -50 6 0 10 -7 10 -15 0 -8 7 -15
15 -15 8 0 25 -6 36 -12 17 -10 23 -10 26 0 3 7 22 12 48 12 39 0 44 3 54 30
7 22 7 44 -2 80 -10 41 -16 50 -34 50 -12 0 -25 5 -28 10 -3 6 -19 10 -35 10
-16 0 -32 -4 -35 -10z"/>
</g>
</svg>
